<?xml version="1.0" encoding="utf-8"?>
<!-- Generator: Adobe Illustrator 18.0.0, SVG Export Plug-In . SVG Version: 6.00 Build 0)  -->
<!DOCTYPE svg PUBLIC "-//W3C//DTD SVG 1.1//EN" "http://www.w3.org/Graphics/SVG/1.1/DTD/svg11.dtd">
<svg version="1.1" id="Layer_1" xmlns="http://www.w3.org/2000/svg" xmlns:xlink="http://www.w3.org/1999/xlink" x="0px" y="0px"
	 viewBox="0 0 64 64" enable-background="new 0 0 64 64" xml:space="preserve">
<g>
	<path d="M0,19v26h11.6L35,64.2V-0.2L11.6,19H0z M31,8.2v47.5L13,41H4V23h9L31,8.2z"/>
	<path d="M51.4,3.5l-2.7,2.9C56,13.3,60,22.4,60,32s-4,18.7-11.4,25.5l2.7,2.9C59.5,52.9,64,42.8,64,32S59.5,11.1,51.4,3.5z"/>
	<path d="M46.4,12.5l-2.7,2.9C48.4,19.9,51,25.8,51,32s-2.6,12.1-7.4,16.5l2.7,2.9C51.9,46.3,55,39.4,55,32S51.9,17.7,46.4,12.5z"/>
	<path d="M41.4,21.6l-2.9,2.8c4,4.2,4,11,0,15.2l2.9,2.8C46.9,36.7,46.9,27.3,41.4,21.6z"/>
</g>
</svg>
